<?xml version="1.0" encoding="UTF-8" standalone="no"?>
<!-- Created with Inkscape (http://www.inkscape.org/) -->
<svg xmlns:dc="http://purl.org/dc/elements/1.1/" xmlns:cc="http://creativecommons.org/ns#" xmlns:rdf="http://www.w3.org/1999/02/22-rdf-syntax-ns#" xmlns:svg="http://www.w3.org/2000/svg" xmlns="http://www.w3.org/2000/svg" xmlns:xlink="http://www.w3.org/1999/xlink" xmlns:sodipodi="http://sodipodi.sourceforge.net/DTD/sodipodi-0.dtd" xmlns:inkscape="http://www.inkscape.org/namespaces/inkscape" inkscape:export-ydpi="240.00000" inkscape:export-xdpi="240.00000" inkscape:export-filename="application-pgp-keys-purple.png" sodipodi:docname="Application-pgp-keys-purple.svg" inkscape:version="0.47 r22583" sodipodi:version="0.32" id="svg249" height="48.000000px" width="48.000000px" inkscape:output_extension="org.inkscape.output.svg.inkscape" version="1.1">
  <defs id="defs3">
    <inkscape:perspective sodipodi:type="inkscape:persp3d" inkscape:vp_x="0 : 24 : 1" inkscape:vp_y="0 : 1000 : 0" inkscape:vp_z="48 : 24 : 1" inkscape:persp3d-origin="24 : 16 : 1" id="perspective89"/>
    <radialGradient inkscape:collect="always" xlink:href="#linearGradient5060" id="radialGradient6719" gradientUnits="userSpaceOnUse" gradientTransform="matrix(-2.774389,0,0,1.969706,112.7623,-872.8854)" cx="605.71429" cy="486.64789" fx="605.71429" fy="486.64789" r="117.14286"/>
    <linearGradient inkscape:collect="always" id="linearGradient5060">
      <stop style="stop-color:black;stop-opacity:1;" offset="0" id="stop5062"/>
      <stop style="stop-color:black;stop-opacity:0;" offset="1" id="stop5064"/>
    </linearGradient>
    <radialGradient inkscape:collect="always" xlink:href="#linearGradient5060" id="radialGradient6717" gradientUnits="userSpaceOnUse" gradientTransform="matrix(2.774389,0,0,1.969706,-1891.633,-872.8854)" cx="605.71429" cy="486.64789" fx="605.71429" fy="486.64789" r="117.14286"/>
    <linearGradient id="linearGradient5048">
      <stop style="stop-color:black;stop-opacity:0;" offset="0" id="stop5050"/>
      <stop id="stop5056" offset="0.5" style="stop-color:black;stop-opacity:1;"/>
      <stop style="stop-color:black;stop-opacity:0;" offset="1" id="stop5052"/>
    </linearGradient>
    <linearGradient inkscape:collect="always" xlink:href="#linearGradient5048" id="linearGradient6715" gradientUnits="userSpaceOnUse" gradientTransform="matrix(2.774389,0,0,1.969706,-1892.179,-872.8854)" x1="302.85715" y1="366.64789" x2="302.85715" y2="609.50507"/>
    <linearGradient id="linearGradient15662">
      <stop id="stop15664" offset="0.0000000" style="stop-color:#ffffff;stop-opacity:1.0000000;"/>
      <stop id="stop15666" offset="1.0000000" style="stop-color:#f8f8f8;stop-opacity:1.0000000;"/>
    </linearGradient>
    <radialGradient id="aigrd3" cx="20.8921" cy="64.5679" r="5.257" fx="20.8921" fy="64.5679" gradientUnits="userSpaceOnUse">
      <stop offset="0" style="stop-color:#F0F0F0" id="stop15573"/>
      <stop offset="1.0000000" style="stop-color:#9a9a9a;stop-opacity:1.0000000;" id="stop15575"/>
    </radialGradient>
    <radialGradient id="aigrd2" cx="20.8921" cy="114.5684" r="5.256" fx="20.8921" fy="114.5684" gradientUnits="userSpaceOnUse">
      <stop offset="0" style="stop-color:#F0F0F0" id="stop15566"/>
      <stop offset="1.0000000" style="stop-color:#9a9a9a;stop-opacity:1.0000000;" id="stop15568"/>
    </radialGradient>
    <linearGradient id="linearGradient269">
      <stop id="stop270" offset="0" style="stop-color:#a3a3fa;stop-opacity:1;"/>
      <stop id="stop271" offset="1" style="stop-color:#4c4cb5;stop-opacity:1;"/>
    </linearGradient>
    <linearGradient id="linearGradient259">
      <stop id="stop260" offset="0.0000000" style="stop-color:#fafafa;stop-opacity:1.0000000;"/>
      <stop id="stop261" offset="1.0000000" style="stop-color:#bbbbbb;stop-opacity:1.0000000;"/>
    </linearGradient>
    <radialGradient inkscape:collect="always" xlink:href="#linearGradient269" id="radialGradient15656" gradientUnits="userSpaceOnUse" gradientTransform="matrix(0.968273,0,0,1.032767,3.353553,0.646447)" cx="8.824419" cy="3.7561285" fx="8.824419" fy="3.7561285" r="37.751713"/>
    <radialGradient inkscape:collect="always" xlink:href="#linearGradient259" id="radialGradient15658" gradientUnits="userSpaceOnUse" gradientTransform="scale(0.960493,1.041132)" cx="33.966679" cy="35.736916" fx="33.966679" fy="35.736916" r="86.708450"/>
    <radialGradient inkscape:collect="always" xlink:href="#linearGradient15662" id="radialGradient15668" gradientUnits="userSpaceOnUse" gradientTransform="matrix(0.968273,0.000000,0.000000,1.032767,3.353553,0.646447)" cx="8.1435566" cy="7.2678967" fx="8.1435566" fy="7.2678967" r="38.158695"/>
    <radialGradient r="5.256" fy="114.5684" fx="20.8921" cy="114.5684" cx="20.8921" gradientTransform="matrix(0.229703,0.000000,0.000000,0.229703,4.613529,3.979808)" gradientUnits="userSpaceOnUse" id="radialGradient2283" xlink:href="#aigrd2" inkscape:collect="always"/>
    <radialGradient r="5.257" fy="64.5679" fx="20.8921" cy="64.5679" cx="20.8921" gradientTransform="matrix(0.229703,0.000000,0.000000,0.229703,4.613529,3.979808)" gradientUnits="userSpaceOnUse" id="radialGradient2285" xlink:href="#aigrd3" inkscape:collect="always"/>
    <linearGradient id="linearGradient2119">
      <stop style="stop-color:#d200ff;stop-opacity:0.56862748;" offset="0" id="stop2121"/>
      <stop id="stop2378" offset="0.11" style="stop-color:#ff00fa;stop-opacity:0.72156864;"/>
      <stop style="stop-color:#ff00fd;stop-opacity:0.23137255;" offset="1" id="stop2123"/>
    </linearGradient>
    <linearGradient inkscape:collect="always" xlink:href="#linearGradient2119" id="linearGradient7465" gradientUnits="userSpaceOnUse" gradientTransform="matrix(4.5856459e-2,4.9307997e-2,-5.2151866e-2,4.8915695e-2,81.398788,-22.432431)" x1="333.57144" y1="459.00504" x2="564.28572" y2="459.00504"/>
    <linearGradient inkscape:collect="always" xlink:href="#linearGradient2119" id="linearGradient7467" gradientUnits="userSpaceOnUse" gradientTransform="matrix(4.5856459e-2,4.9307997e-2,-5.2151866e-2,4.8915695e-2,81.398788,-22.432431)" x1="336.15625" y1="504.34375" x2="567.00000" y2="504.34375"/>
    <linearGradient inkscape:collect="always" xlink:href="#linearGradient2119" id="linearGradient3677" gradientUnits="userSpaceOnUse" gradientTransform="matrix(0.04585646,0.049308,-0.05215187,0.04891569,81.398788,-22.432431)" x1="333.57144" y1="459.00504" x2="564.28571" y2="459.00504"/>
    <linearGradient inkscape:collect="always" xlink:href="#linearGradient2119" id="linearGradient3679" gradientUnits="userSpaceOnUse" gradientTransform="matrix(0.04585646,0.049308,-0.05215187,0.04891569,81.398788,-22.432431)" x1="336.15625" y1="504.34375" x2="567" y2="504.34375"/>
  </defs>
  <sodipodi:namedview inkscape:window-y="32" inkscape:window-x="-5" inkscape:window-height="746" inkscape:window-width="1024" inkscape:document-units="px" inkscape:grid-bbox="true" showgrid="false" inkscape:current-layer="layer5" inkscape:cy="22.870639" inkscape:cx="30.909064" inkscape:zoom="11.313708" inkscape:pageshadow="2" inkscape:pageopacity="0.0" borderopacity="0.25490196" bordercolor="#666666" pagecolor="#ffffff" id="base" inkscape:showpageshadow="false" inkscape:window-maximized="0"/>
  <metadata id="metadata4">
    <rdf:RDF>
      <cc:Work rdf:about="">
        <dc:format>image/svg+xml</dc:format>
        <dc:type rdf:resource="http://purl.org/dc/dcmitype/StillImage"/>
        <dc:title/>
        <dc:subject>
          <rdf:Bag>
            <rdf:li>text</rdf:li>
            <rdf:li>plaintext</rdf:li>
            <rdf:li>regular</rdf:li>
            <rdf:li>document</rdf:li>
          </rdf:Bag>
        </dc:subject>
        <cc:license rdf:resource="http://creativecommons.org/licenses/by-sa/2.0/"/>
        <dc:creator>
          <cc:Agent>
            <dc:title>Jakub Steiner</dc:title>
          </cc:Agent>
        </dc:creator>
        <dc:source>http://jimmac.musichall.cz</dc:source>
      </cc:Work>
      <cc:License rdf:about="http://creativecommons.org/licenses/by/2.0/">
        <cc:permits rdf:resource="http://web.resource.org/cc/Reproduction"/>
        <cc:permits rdf:resource="http://web.resource.org/cc/Distribution"/>
        <cc:requires rdf:resource="http://web.resource.org/cc/Notice"/>
        <cc:requires rdf:resource="http://web.resource.org/cc/Attribution"/>
        <cc:permits rdf:resource="http://web.resource.org/cc/DerivativeWorks"/>
        <cc:requires rdf:resource="http://web.resource.org/cc/ShareAlike"/>
      </cc:License>
      <cc:Work rdf:about="">
        <dc:format>image/svg+xml</dc:format>
        <dc:type rdf:resource="http://purl.org/dc/dcmitype/StillImage"/>
      </cc:Work>
    </rdf:RDF>
  </metadata>
  <g inkscape:groupmode="layer" id="layer6" inkscape:label="Shadow">
    <g style="display:inline" transform="matrix(2.105461e-2,0,0,2.086758e-2,42.85172,41.1536)" id="g6707">
      <rect style="opacity:0.40206185;color:black;fill:url(#linearGradient6715);fill-opacity:1;fill-rule:nonzero;stroke:none;stroke-width:1;stroke-linecap:round;stroke-linejoin:miter;marker:none;marker-start:none;marker-mid:none;marker-end:none;stroke-miterlimit:4;stroke-dasharray:none;stroke-dashoffset:0;stroke-opacity:1;visibility:visible;display:inline;overflow:visible" id="rect6709" width="1339.6335" height="478.35718" x="-1559.2523" y="-150.69685"/>
      <path style="opacity:0.40206185;color:black;fill:url(#radialGradient6717);fill-opacity:1;fill-rule:nonzero;stroke:none;stroke-width:1;stroke-linecap:round;stroke-linejoin:miter;marker:none;marker-start:none;marker-mid:none;marker-end:none;stroke-miterlimit:4;stroke-dasharray:none;stroke-dashoffset:0;stroke-opacity:1;visibility:visible;display:inline;overflow:visible" d="M -219.61876,-150.68038 C -219.61876,-150.68038 -219.61876,327.65041 -219.61876,327.65041 C -76.744594,328.55086 125.78146,220.48075 125.78138,88.454235 C 125.78138,-43.572302 -33.655436,-150.68036 -219.61876,-150.68038 z " id="path6711" sodipodi:nodetypes="cccc"/>
      <path sodipodi:nodetypes="cccc" id="path6713" d="M -1559.2523,-150.68038 C -1559.2523,-150.68038 -1559.2523,327.65041 -1559.2523,327.65041 C -1702.1265,328.55086 -1904.6525,220.48075 -1904.6525,88.454235 C -1904.6525,-43.572302 -1745.2157,-150.68036 -1559.2523,-150.68038 z " style="opacity:0.40206185;color:black;fill:url(#radialGradient6719);fill-opacity:1;fill-rule:nonzero;stroke:none;stroke-width:1;stroke-linecap:round;stroke-linejoin:miter;marker:none;marker-start:none;marker-mid:none;marker-end:none;stroke-miterlimit:4;stroke-dasharray:none;stroke-dashoffset:0;stroke-opacity:1;visibility:visible;display:inline;overflow:visible"/>
    </g>
  </g>
  <g style="display:inline" inkscape:groupmode="layer" inkscape:label="Base" id="layer1">
    <rect style="color:#000000;fill:url(#radialGradient15658);fill-opacity:1.0000000;fill-rule:nonzero;stroke:url(#radialGradient15656);stroke-width:1.0000000;stroke-linecap:round;stroke-linejoin:round;stroke-miterlimit:4.0000000;stroke-dashoffset:0.0000000;stroke-opacity:1.0000000;marker:none;marker-start:none;marker-mid:none;marker-end:none;visibility:visible;display:block;overflow:visible" id="rect15391" width="34.875000" height="40.920494" x="6.6035528" y="3.6464462" ry="1.1490486"/>
    <rect style="color:#000000;fill:none;fill-opacity:1.0000000;fill-rule:nonzero;stroke:url(#radialGradient15668);stroke-width:1.0000000;stroke-linecap:round;stroke-linejoin:round;stroke-miterlimit:4.0000000;stroke-dashoffset:0.0000000;stroke-opacity:1.0000000;marker:none;marker-start:none;marker-mid:none;marker-end:none;visibility:visible;display:block;overflow:visible" id="rect15660" width="32.775887" height="38.946384" x="7.6660538" y="4.5839462" ry="0.14904857" rx="0.14904857"/>
    <g transform="translate(0.646447,-3.798933e-2)" id="g2270">
      <g id="g1440" style="fill:#ffffff;fill-opacity:1.0000000;fill-rule:nonzero;stroke:#000000;stroke-miterlimit:4.0000000" transform="matrix(0.229703,0.000000,0.000000,0.229703,4.967081,4.244972)">
        <radialGradient id="radialGradient1442" cx="20.892099" cy="114.56840" r="5.2560000" fx="20.892099" fy="114.56840" gradientUnits="userSpaceOnUse">
          <stop offset="0" style="stop-color:#F0F0F0" id="stop1444"/>
          <stop offset="1" style="stop-color:#474747" id="stop1446"/>
        </radialGradient>
        <path style="stroke:none" d="M 23.428000,113.07000 C 23.428000,115.04300 21.828000,116.64200 19.855000,116.64200 C 17.881000,116.64200 16.282000,115.04200 16.282000,113.07000 C 16.282000,111.09600 17.882000,109.49700 19.855000,109.49700 C 21.828000,109.49700 23.428000,111.09700 23.428000,113.07000 z " id="path1448"/>
        <radialGradient id="radialGradient1450" cx="20.892099" cy="64.567902" r="5.2570000" fx="20.892099" fy="64.567902" gradientUnits="userSpaceOnUse">
          <stop offset="0" style="stop-color:#F0F0F0" id="stop1452"/>
          <stop offset="1" style="stop-color:#474747" id="stop1454"/>
        </radialGradient>
        <path style="stroke:none" d="M 23.428000,63.070000 C 23.428000,65.043000 21.828000,66.643000 19.855000,66.643000 C 17.881000,66.643000 16.282000,65.043000 16.282000,63.070000 C 16.282000,61.096000 17.882000,59.497000 19.855000,59.497000 C 21.828000,59.497000 23.428000,61.097000 23.428000,63.070000 z " id="path1456"/>
      </g>
      <path style="fill:url(#radialGradient2283);fill-rule:nonzero;stroke:none;stroke-miterlimit:4.0000000" d="M 9.9950109,29.952326 C 9.9950109,30.405530 9.6274861,30.772825 9.1742821,30.772825 C 8.7208483,30.772825 8.3535532,30.405301 8.3535532,29.952326 C 8.3535532,29.498892 8.7210780,29.131597 9.1742821,29.131597 C 9.6274861,29.131597 9.9950109,29.499122 9.9950109,29.952326 z " id="path15570"/>
      <path style="fill:url(#radialGradient2285);fill-rule:nonzero;stroke:none;stroke-miterlimit:4.0000000" d="M 9.9950109,18.467176 C 9.9950109,18.920380 9.6274861,19.287905 9.1742821,19.287905 C 8.7208483,19.287905 8.3535532,18.920380 8.3535532,18.467176 C 8.3535532,18.013742 8.7210780,17.646447 9.1742821,17.646447 C 9.6274861,17.646447 9.9950109,18.013972 9.9950109,18.467176 z " id="path15577"/>
    </g>
    <path style="fill:none;fill-opacity:0.75000000;fill-rule:evenodd;stroke:#000000;stroke-width:0.98855311;stroke-linecap:butt;stroke-linejoin:miter;stroke-miterlimit:4.0000000;stroke-opacity:0.017543854" d="M 11.505723,5.4942766 L 11.505723,43.400869" id="path15672" sodipodi:nodetypes="cc"/>
    <path style="fill:none;fill-opacity:0.75000000;fill-rule:evenodd;stroke:#ffffff;stroke-width:1.0000000;stroke-linecap:butt;stroke-linejoin:miter;stroke-miterlimit:4.0000000;stroke-opacity:0.20467831" d="M 12.500000,5.0205154 L 12.500000,43.038228" id="path15674" sodipodi:nodetypes="cc"/>
  </g>
  <g inkscape:groupmode="layer" id="layer5" inkscape:label="Text" style="display:inline">
    <rect ry="0.065390877" rx="0.13778631" y="9" x="15.999994" height="1" width="20.000006" id="rect15686" style="color:#000000;fill:#9b9bd2;fill-opacity:0.54970759;fill-rule:nonzero;stroke:none;stroke-width:1;stroke-linecap:round;stroke-linejoin:round;marker:none;marker-start:none;marker-mid:none;marker-end:none;stroke-miterlimit:4;stroke-dashoffset:0;stroke-opacity:0.08187136000000000;visibility:visible;display:block;overflow:visible"/>
    <rect ry="0.065390877" rx="0.13778631" y="11" x="15.999994" height="1" width="20.000006" id="rect15688" style="color:#000000;fill:#9b9bd2;fill-opacity:0.54970759;fill-rule:nonzero;stroke:none;stroke-width:1;stroke-linecap:round;stroke-linejoin:round;marker:none;marker-start:none;marker-mid:none;marker-end:none;stroke-miterlimit:4;stroke-dashoffset:0;stroke-opacity:0.08187136000000000;visibility:visible;display:block;overflow:visible"/>
    <rect ry="0.065390877" rx="0.13778631" y="13" x="15.999994" height="1" width="20.000006" id="rect15690" style="color:#000000;fill:#9b9bd2;fill-opacity:0.54970759;fill-rule:nonzero;stroke:none;stroke-width:1;stroke-linecap:round;stroke-linejoin:round;marker:none;marker-start:none;marker-mid:none;marker-end:none;stroke-miterlimit:4;stroke-dashoffset:0;stroke-opacity:0.08187136000000000;visibility:visible;display:block;overflow:visible"/>
    <rect ry="0.065390877" rx="0.13778631" y="15" x="15.999994" height="1" width="20.000006" id="rect15692" style="color:#000000;fill:#9b9bd2;fill-opacity:0.54970759;fill-rule:nonzero;stroke:none;stroke-width:1;stroke-linecap:round;stroke-linejoin:round;marker:none;marker-start:none;marker-mid:none;marker-end:none;stroke-miterlimit:4;stroke-dashoffset:0;stroke-opacity:0.08187136000000000;visibility:visible;display:block;overflow:visible"/>
    <rect ry="0.065390877" rx="0.13778631" y="17" x="15.999994" height="1" width="20.000006" id="rect15694" style="color:#000000;fill:#9b9bd2;fill-opacity:0.54970759;fill-rule:nonzero;stroke:none;stroke-width:1;stroke-linecap:round;stroke-linejoin:round;marker:none;marker-start:none;marker-mid:none;marker-end:none;stroke-miterlimit:4;stroke-dashoffset:0;stroke-opacity:0.08187136000000000;visibility:visible;display:block;overflow:visible"/>
    <rect ry="0.065390877" rx="0.13778631" y="19" x="15.999994" height="1" width="20.000006" id="rect15696" style="color:#000000;fill:#9b9bd2;fill-opacity:0.54970759;fill-rule:nonzero;stroke:none;stroke-width:1;stroke-linecap:round;stroke-linejoin:round;marker:none;marker-start:none;marker-mid:none;marker-end:none;stroke-miterlimit:4;stroke-dashoffset:0;stroke-opacity:0.08187136000000000;visibility:visible;display:block;overflow:visible"/>
    <rect ry="0.065390877" rx="0.13778631" y="21" x="15.999994" height="1" width="20.000006" id="rect15698" style="color:#000000;fill:#9b9bd2;fill-opacity:0.54970759;fill-rule:nonzero;stroke:none;stroke-width:1;stroke-linecap:round;stroke-linejoin:round;marker:none;marker-start:none;marker-mid:none;marker-end:none;stroke-miterlimit:4;stroke-dashoffset:0;stroke-opacity:0.08187136000000000;visibility:visible;display:block;overflow:visible"/>
    <rect ry="0.065390877" rx="0.13778631" y="23" x="15.999994" height="1" width="20.000006" id="rect15700" style="color:#000000;fill:#9b9bd2;fill-opacity:0.54970759;fill-rule:nonzero;stroke:none;stroke-width:1;stroke-linecap:round;stroke-linejoin:round;marker:none;marker-start:none;marker-mid:none;marker-end:none;stroke-miterlimit:4;stroke-dashoffset:0;stroke-opacity:0.08187136000000000;visibility:visible;display:block;overflow:visible"/>
    <rect ry="0.065390877" rx="0.062003858" y="25" x="15.999986" height="1" width="9.0000057" id="rect15732" style="color:#000000;fill:#9b9bd2;fill-opacity:0.54970759;fill-rule:nonzero;stroke:none;stroke-width:1;stroke-linecap:round;stroke-linejoin:round;marker:none;marker-start:none;marker-mid:none;marker-end:none;stroke-miterlimit:4;stroke-dashoffset:0;stroke-opacity:0.08187136000000000;visibility:visible;display:block;overflow:visible"/>
    <g id="g4849">
      <rect style="color:#000000;fill:#9b9bd7;fill-opacity:0.54970759;fill-rule:nonzero;stroke:none;stroke-width:1;stroke-linecap:round;stroke-linejoin:round;marker:none;marker-start:none;marker-mid:none;marker-end:none;stroke-miterlimit:4;stroke-dashoffset:0;stroke-opacity:0.08187136000000000;visibility:visible;display:block;overflow:visible" id="rect15736" width="20.000006" height="1" x="15.999986" y="29" rx="0.13778631" ry="0.065390877"/>
      <rect style="color:#000000;fill:#9b9bd7;fill-opacity:0.54970759;fill-rule:nonzero;stroke:none;stroke-width:1;stroke-linecap:round;stroke-linejoin:round;marker:none;marker-start:none;marker-mid:none;marker-end:none;stroke-miterlimit:4;stroke-dashoffset:0;stroke-opacity:0.08187136000000000;visibility:visible;display:block;overflow:visible" id="rect15738" width="20.000006" height="1" x="15.999986" y="31" rx="0.13778631" ry="0.065390877"/>
      <rect style="color:#000000;fill:#9b9bd7;fill-opacity:0.54970759;fill-rule:nonzero;stroke:none;stroke-width:1;stroke-linecap:round;stroke-linejoin:round;marker:none;marker-start:none;marker-mid:none;marker-end:none;stroke-miterlimit:4;stroke-dashoffset:0;stroke-opacity:0.08187136000000000;visibility:visible;display:block;overflow:visible" id="rect15740" width="20.000006" height="1" x="15.999986" y="33" rx="0.13778631" ry="0.065390877"/>
      <rect style="color:#000000;fill:#9b9bd7;fill-opacity:0.54970759;fill-rule:nonzero;stroke:none;stroke-width:1;stroke-linecap:round;stroke-linejoin:round;marker:none;marker-start:none;marker-mid:none;marker-end:none;stroke-miterlimit:4;stroke-dashoffset:0;stroke-opacity:0.08187136000000000;visibility:visible;display:block;overflow:visible" id="rect15742" width="20.000006" height="1" x="15.999986" y="35" rx="0.13778631" ry="0.065390877"/>
      <rect style="color:#000000;fill:#9b9bd7;fill-opacity:0.54970759;fill-rule:nonzero;stroke:none;stroke-width:1;stroke-linecap:round;stroke-linejoin:round;marker:none;marker-start:none;marker-mid:none;marker-end:none;stroke-miterlimit:4;stroke-dashoffset:0;stroke-opacity:0.08187136000000000;visibility:visible;display:block;overflow:visible" id="rect15744" width="14.000014" height="1" x="15.999986" y="37" rx="0.096450485" ry="0.065390877"/>
    </g>
    <g id="g7334" transform="translate(68.820186,-7.756368)"/>
    <g style="display:inline" id="g7336" transform="translate(68.820186,-7.756368)"/>
    <g id="g7345" transform="translate(-37.390793,17.063703)">
      <path sodipodi:nodetypes="csscccccccccccscccccccccccccc" id="path2100" d="M 72.754718,7.8315357 C 70.114959,4.9930856 65.579692,4.9494479 62.618659,7.7267408 C 59.657624,10.504034 59.391627,15.051006 62.031385,17.889456 C 64.011686,20.01881 67.059712,20.576895 69.711528,19.551218 L 70.545887,20.448379 L 72.542103,21.095655 L 72.075548,22.093174 L 75.751727,25.612953 L 77.008482,25.39848 L 76.771499,26.709482 L 77.652213,27.656486 L 79.339227,27.038454 L 78.986405,28.458108 L 79.789863,29.322041 C 79.795945,29.328579 79.79672,29.338237 79.805314,29.338654 C 79.813909,29.339072 79.830398,29.346236 79.837313,29.339748 C 79.837313,29.339748 82.971067,29.511094 82.971067,29.511094 C 82.971067,29.511096 84.239534,27.077082 84.239534,27.077082 L 73.933551,15.528969 C 75.076962,12.963221 74.708767,9.932661 72.754718,7.8315357 z M 67.512562,8.891206 L 67.713426,9.1071891 C 68.24241,9.6759877 68.192913,10.586053 67.612301,11.130637 L 65.90782,12.72935 C 65.327207,13.273934 64.436289,13.245929 63.907306,12.67713 L 63.70644,12.461146 C 63.177457,11.892348 63.210404,10.997803 63.791018,10.453219 L 65.495497,8.8545067 C 66.076111,8.3099225 66.983579,8.3224065 67.512562,8.891206 z " style="fill:#a96790;fill-opacity:1;fill-rule:evenodd;stroke:none;stroke-width:1;stroke-linecap:butt;stroke-linejoin:round;stroke-miterlimit:4;stroke-dasharray:none;stroke-opacity:1"/>
      <path sodipodi:nodetypes="ccccccccc" id="path2102" d="M 73.341675,15.963876 L 83.711295,27.448611 C 83.72346,27.461692 83.724379,27.480543 83.713356,27.49088 L 83.189228,27.982485 C 83.178207,27.992823 83.159541,27.990616 83.147377,27.977538 L 72.777757,16.492802 C 72.765595,16.479724 72.764675,16.460871 72.775696,16.450533 L 73.299826,15.958929 C 73.310847,15.94859 73.329513,15.950797 73.341675,15.963876 z " style="fill:url(#linearGradient3677);fill-opacity:1;fill-rule:evenodd;stroke:none;stroke-width:0.31200000999999999;stroke-linecap:butt;stroke-linejoin:round;stroke-miterlimit:4;stroke-opacity:1"/>
      <path sodipodi:nodetypes="ccccccccccccccscc" id="path2104" d="M 81.991664,29.356316 L 71.40017,18.016836 C 71.389476,18.005335 71.355822,18.020927 71.322871,18.051834 L 69.825135,19.456632 L 70.654757,20.348701 L 72.646364,20.990781 L 72.182442,21.99137 L 75.846047,25.510757 L 77.123502,25.296347 L 76.867786,26.609401 L 77.746225,27.553957 L 79.440894,26.948222 L 79.080875,28.359106 L 79.894827,29.234324 C 79.900908,29.240864 79.908514,29.24474 79.917109,29.245159 C 79.925704,29.245576 79.935284,29.242538 79.942201,29.236049 C 79.942201,29.236049 81.06678,29.302165 81.991664,29.356316 z " style="fill:url(#linearGradient3679);fill-opacity:1;fill-rule:evenodd;stroke:none;stroke-width:1;stroke-linecap:butt;stroke-linejoin:round;stroke-miterlimit:4;stroke-dasharray:none;stroke-opacity:1"/>
      <path id="path2108" d="M 73.832544,14.713457 C 71.386328,12.447113 69.558663,12.918747 66.439915,12.208044 L 65.885688,12.727879 C 65.296429,13.280573 64.392244,13.252151 63.855385,12.674881 L 63.651528,12.455682 C 63.316249,12.095166 63.261583,11.624535 63.370199,11.172644 C 62.606897,10.787477 61.988481,10.340275 61.399008,9.8645586 C 60.081438,12.372912 60.362396,15.478403 62.322132,17.585647 C 64.82417,20.276012 69.126193,20.327409 71.92601,17.70133 C 72.836898,16.846965 73.469581,15.811217 73.832544,14.713457 z " style="opacity:1;fill:#bb009d;fill-opacity:1;fill-rule:evenodd;stroke:none;stroke-width:0.31200000999999999;stroke-linecap:butt;stroke-linejoin:round;stroke-miterlimit:4;stroke-opacity:1"/>
      <path id="path2110" d="M 67.500029,8.8918687 L 67.704421,9.1116456 C 68.233405,9.6804452 68.191841,10.576779 67.611229,11.121362 L 65.906385,12.720415 C 65.325772,13.264998 64.432487,13.245505 63.903505,12.676706 L 63.699112,12.456929 C 63.170128,11.88813 63.211693,10.991796 63.792306,10.447212 L 65.497149,8.8481597 C 66.077761,8.3035753 66.971045,8.3230701 67.500029,8.8918687 z " style="fill:none;fill-opacity:0.94117647;fill-rule:evenodd;stroke:#ac8b0b;stroke-width:0.72868884;stroke-linecap:butt;stroke-linejoin:round;stroke-miterlimit:4;stroke-dasharray:none;stroke-opacity:1"/>
      <path sodipodi:nodetypes="csscccccccccccscccccccccccccc" style="fill:none;fill-opacity:1;fill-rule:evenodd;stroke:#ac8bff;stroke-width:1;stroke-linecap:butt;stroke-linejoin:miter;stroke-miterlimit:4;stroke-dasharray:none;stroke-opacity:1" d="M 72.754718,7.8315357 C 70.114959,4.9930856 65.579692,4.9494479 62.618659,7.7267408 C 59.657624,10.504034 59.391627,15.051006 62.031385,17.889456 C 64.011686,20.01881 67.059712,20.576895 69.711528,19.551218 L 70.545887,20.448379 L 72.806878,20.847311 L 72.322765,22.359001 L 75.504507,25.347126 L 77.802803,24.653447 L 77.018717,26.975308 L 77.652213,27.656486 L 79.604001,26.790111 L 79.233623,28.723934 L 79.789863,29.322041 C 79.795945,29.328579 79.79672,29.338237 79.805314,29.338654 C 79.813909,29.339072 79.830398,29.346236 79.837313,29.339748 C 79.837313,29.339748 82.971067,29.511094 82.971067,29.511094 C 82.971067,29.511096 84.239534,27.077082 84.239534,27.077082 L 73.933551,15.528969 C 75.076962,12.963221 74.708767,9.932661 72.754718,7.8315357 z M 67.512562,8.891206 L 67.713426,9.1071891 C 68.24241,9.6759877 68.192913,10.586053 67.612301,11.130637 L 65.90782,12.72935 C 65.327207,13.273934 64.436289,13.245929 63.907306,12.67713 L 63.70644,12.461146 C 63.177457,11.892348 63.210404,10.997803 63.791018,10.453219 L 65.495497,8.8545067 C 66.076111,8.3099225 66.983579,8.3224065 67.512562,8.891206 z " id="path2112"/>
    </g>
  </g>
</svg>